<svg width="23.488" xmlns="http://www.w3.org/2000/svg" height="16.111"><g fill="#231f20"><path d="M1.002 13.674s-.422 2.438.668 2.438h20.206c.887 0 .667-2.438.667-2.438h-21.541zM.667 8.676h22.155v1.812h-22.155zM11.375 11.599c.169-.009.293.071.353.153.125-.023.323-.066.632-.15.723-.188 1.03-.385 1.268-.545h-2.553l.19.345.11.197zM9.059 11.269c.199.016.376-.085.542-.212h-1.013c.138.145.196.205.471.212zM18.836 11.057h-.75l.476.177zM3.505 12.055c.582-.208 1.092-.527 1.584-.836l.264-.162h-3.75c.22.401.876 1.363 1.902.998zM.92 11.217l.299-.16h-1.219v1.813h2.984c-1.057-.044-1.791-1.027-2.064-1.653zM21.116 11.057l.972.581-.314.651-1.834-1.094-1.303.85-1.644-.619h-2.224c-.406 0-.524.081-.764.243-.269.185-.636.431-1.491.655-.914.237-1.163.271-1.333.027l-.045-.064c-.245-.101-.363-.345-.454-.533-.068-.139-.143-.293-.271-.453l-.208.189c-.27.227-.647.541-1.162.521-.529-.017-.732-.229-.911-.417-.146-.157-.301-.319-.808-.426-.587-.131-1.198.254-1.904.698-.497.312-1.062.663-1.707.896-.199.069-.386.101-.566.108h20.344v-1.813h-2.373zM3.054 12.878l.09-.008h-.16l.07.008zM13.16.03c-.266-.022-1.815-.03-2.085-.03-4.719 0-8.335 3.473-10.159 7.961l21.495-.062c-1.668-4.383-4.781-7.528-9.251-7.869z"/></g></svg>