<?xml version="1.0" encoding="utf-8"?>
<!-- Generator: Adobe Illustrator 15.0.0, SVG Export Plug-In . SVG Version: 6.00 Build 0)  -->
<!DOCTYPE svg PUBLIC "-//W3C//DTD SVG 1.1//EN" "http://www.w3.org/Graphics/SVG/1.1/DTD/svg11.dtd">
<svg version="1.1" id="Layer_1" xmlns="http://www.w3.org/2000/svg" xmlns:xlink="http://www.w3.org/1999/xlink" x="0px" y="0px"
	 width="26px" height="26px" viewBox="0 0 26 26" enable-background="new 0 0 26 26" xml:space="preserve">
<path fill-rule="evenodd" clip-rule="evenodd" d="M20.785,8.541c0.032-0.585-0.702-0.832-0.861-1.227
	c0.108-0.113,0.201-0.815,0.199-1.038c-0.057-0.208-0.47,0.149-0.596,0.177c0.054-0.139-0.012-0.585-0.111-0.85
	c-0.408-0.011-0.212,0.727-0.343,0.839c-0.066-0.087-0.287,0.177-0.623-0.535c-0.299-0.619-0.147,0.697-0.116,0.944
	c-0.872,0.133-1.403,0.716-1.922,1.392c-0.528,0.688-0.763,2.817-2.154,2.817c-1.658,0.209-3.399-1.603-4.406-2.353
	C9.466,8.163,8.881,6.943,8.063,7.05C7.694,7.098,7.567,7.534,7.135,7.646c0,0-1.966,0.479-1.922,1.145
	c0.044,0.666,2.755,1.463,2.755,1.463s-2.623-0.731-1.541,0.197c0.313,0.269,2.005,0.686,2.364,1.142
	c0.127,0.163-2.154-0.678-1.944-0.303s1.579,1.457,1.579,1.457l0.166,0.266c-0.214,0.263,0.657,1.207,0.795,1.326
	c-0.199-0.068-0.117,0.146-0.132,0.265c0.432,0.363,0.429,0.789,0.729,1.192c0.741,0.996,2.883,0.497,3.379,2.253
	c0.089,0.464,0.385,0.721,0.332,1.325c-0.207,0.213-1.067,0.159-1.182,0.463c0.606,0.063,1.44-0.383,1.91-0.064
	c-0.075,0.146-0.222,0.22-0.265,0.396c0.304,0.071,0.484-0.185,0.796-0.198c0.7-0.031,1.367,0.557,1.855,0.397
	c-0.062-0.019-0.223-0.247-0.067-0.266c0.271-0.051,1.099,0.095,1.393-0.132c-0.104-0.139-0.37-0.116-0.465-0.266
	c0.226-0.086,0.031-0.283,0.133-0.397c-0.307,0.003-0.2,0.418-0.464,0.465c-0.6,0.092-1.417-0.291-1.591-0.266
	c-0.474-0.344-0.737-0.896-0.794-1.657c1.151-0.063,1.497-1.76,2.319-2.152c2.044-0.211,2.714-2.183,2.915-4.275
	c0.112-1.173-0.438-1.647-0.729-2.518C19.825,8.795,20.226,8.248,20.785,8.541z M18.798,7.889c-0.135,0-0.243-0.109-0.243-0.243
	c0-0.135,0.108-0.244,0.243-0.244s0.242,0.109,0.242,0.244C19.04,7.78,18.933,7.889,18.798,7.889z"/>
</svg>
