<?xml version="1.0" encoding="utf-8"?>
<!-- Generator: Adobe Illustrator 15.0.0, SVG Export Plug-In . SVG Version: 6.00 Build 0)  -->
<!DOCTYPE svg PUBLIC "-//W3C//DTD SVG 1.1//EN" "http://www.w3.org/Graphics/SVG/1.1/DTD/svg11.dtd">
<svg version="1.1" id="Layer_1" xmlns="http://www.w3.org/2000/svg" xmlns:xlink="http://www.w3.org/1999/xlink" x="0px" y="0px"
	 width="64px" height="64px" viewBox="0 0 64 64" enable-background="new 0 0 64 64" xml:space="preserve">
<g>
	<g>
		<path fill="#231F20" d="M55.637,47.047c-5.283,2.266-14.459,3.671-24.01,3.671c-9.677,0-18.905-1.432-24.169-3.74l-0.012,0.146
			L7.297,47.11c-0.019-0.002-0.037-0.002-0.056-0.002c-0.658,0-1.727,0.972-2.273,1.662c-0.533,0.558-0.788,1.063-0.788,1.551
			c0,3.412,11.028,7.063,27.446,7.063c16.417,0,27.445-3.651,27.445-7.063C59.072,49.255,57.853,48.091,55.637,47.047z"/>
	</g>
	<g>
		<path fill="#231F20" d="M30.35,27.739c9.957,0,19.863-2.474,24.69-6.159v-0.074l0.113-0.012c1.774-1.385,2.715-2.877,2.715-4.316
			c0-4.076-12.051-10.562-26.329-10.562c-14.278,0-26.327,6.486-26.327,10.562C5.212,22.902,16.722,27.739,30.35,27.739z
			 M47.147,14.495c0.778,0,1.411,0.471,1.411,1.05s-0.633,1.05-1.411,1.05c-0.78,0-1.413-0.471-1.413-1.05
			S46.367,14.495,47.147,14.495z M37.883,21.03c0.779,0,1.413,0.473,1.413,1.05c0,0.581-0.634,1.05-1.413,1.05
			c-0.78,0-1.413-0.47-1.413-1.05C36.47,21.503,37.103,21.03,37.883,21.03z M34.725,14.495c1.125,0,2.043,0.673,2.043,1.501
			c0,0.828-0.918,1.501-2.043,1.501c-1.128,0-2.046-0.673-2.046-1.501C32.679,15.168,33.597,14.495,34.725,14.495z M15.82,14.495
			c1.212,0,2.201,0.724,2.201,1.615c0,0.89-0.988,1.612-2.201,1.612c-1.215,0-2.202-0.723-2.202-1.612
			C13.618,15.219,14.605,14.495,15.82,14.495z"/>
	</g>
	<g>
		<path fill="#231F20" d="M55.817,31.056c-0.46,0.058-0.895,0.111-1.216,0.181c-1.628,0.168-2.8,1.033-3.496,1.732
			c-0.346,0.345-0.523,0.675-0.695,0.996c-0.374,0.69-0.795,1.474-2.452,1.601c-0.108,0.012-0.22,0.019-0.329,0.019
			c-0.73,0-1.353-0.271-1.899-0.509c-0.478-0.207-0.922-0.399-1.399-0.399c-1.023,0.096-2.136,0.992-3.115,1.785
			c-0.262,0.211-0.513,0.414-0.752,0.593c-1.518,1.288-3.01,1.918-4.558,1.918c-2.03,0-3.855-1.058-5.784-2.178
			c-1.061-0.617-2.153-1.251-3.327-1.728c-0.563-0.199-1.149-0.302-1.732-0.302c-1.821,0-3.372,0.988-4.349,1.816l-0.36,0.335
			c-1.064,0.999-1.977,1.852-3.149,1.731c-0.894-0.093-1.707-0.729-2.639-2.061c-0.466-0.726-0.749-1.451-0.996-2.096
			c-0.541-1.402-0.896-2.325-2.556-2.657c-0.211-0.043-0.418-0.062-0.633-0.062c-0.797,0-1.544,0.284-2.335,0.587
			c-0.877,0.333-1.785,0.679-2.837,0.679c-0.179-0.008-0.337-0.03-0.491-0.054c-0.355,0.437-0.536,0.857-0.536,1.256
			c0,3.411,11.028,7.063,27.446,7.063c16.417,0,27.445-3.652,27.445-7.063C59.072,33.209,57.918,32.08,55.817,31.056z"/>
	</g>
	<g>
		<path fill="#231F20" d="M60.713,25.722c-0.287-1.72-2.493-1.955-4.834-1.955l-0.271,0.001c-5.211,3.739-15.352,6.249-25.258,6.249
			c-11.555,0-21.633-3.248-25.221-8.104c-0.92,1.704-2.527,5.931-1.673,7.839c0.297,0.661,0.846,0.973,1.781,1.008
			c0.748-0.001,1.492-0.282,2.278-0.582c0.885-0.338,1.801-0.687,2.855-0.687c0.312,0,0.625,0.032,0.933,0.094
			c2.463,0.491,3.068,2.061,3.654,3.577c0.232,0.605,0.471,1.229,0.843,1.807c0.777,1.109,1.276,1.378,1.557,1.408
			c0.025,0.004,0.046,0.004,0.07,0.004c0.477,0,1.107-0.591,1.836-1.271l0.465-0.433c1.717-1.455,3.506-2.19,5.32-2.19
			c0.762,0,1.526,0.134,2.273,0.397c1.296,0.526,2.434,1.187,3.535,1.825c1.816,1.056,3.378,1.962,5.024,1.962
			c1.214,0,2.409-0.513,3.654-1.569c0.261-0.197,0.497-0.389,0.746-0.59c1.09-0.88,2.442-1.974,3.982-2.113h0.003
			c0.857,0,1.492,0.275,2.051,0.519c0.517,0.226,0.995,0.433,1.5,0.375c0.874-0.067,0.969-0.242,1.282-0.823
			c0.203-0.378,0.457-0.848,0.954-1.344c1.246-1.248,2.739-1.989,4.318-2.148c0.298-0.069,0.768-0.128,1.397-0.205
			c1.685-0.21,3.995-0.496,4.758-1.586C60.793,26.81,60.854,26.331,60.713,25.722z"/>
	</g>
	<g>
		<path fill="#231F20" d="M55.881,39.015c-5.248,2.33-14.529,3.777-24.254,3.777c-9.814,0-19.152-1.469-24.381-3.835H7.235
			c-0.693,0-1.759,1.017-2.267,1.659c-0.533,0.556-0.788,1.06-0.788,1.551c0,3.411,11.028,7.063,27.446,7.063
			c16.417,0,27.445-3.652,27.445-7.063C59.072,41.147,57.94,40.029,55.881,39.015z"/>
	</g>
</g>
</svg>
