<?xml version="1.0" encoding="iso-8859-1"?>
<!-- Generator: Adobe Illustrator 17.1.0, SVG Export Plug-In . SVG Version: 6.00 Build 0)  -->
<!DOCTYPE svg PUBLIC "-//W3C//DTD SVG 1.1//EN" "http://www.w3.org/Graphics/SVG/1.1/DTD/svg11.dtd">
<svg version="1.1" id="Capa_1" xmlns="http://www.w3.org/2000/svg" xmlns:xlink="http://www.w3.org/1999/xlink" x="0px" y="0px"
	 viewBox="0 0 150 150" style="enable-background:new 0 0 150 150;" xml:space="preserve">
<g>
	<path d="M147.847,80.953c-0.166-0.089-0.33-0.2-0.494-0.311c-0.436-0.292-0.887-0.594-1.423-0.632
		c-0.676-0.047-1.402-0.068-2.354-0.068c-0.489,0-1.001,0.005-1.551,0.011c-0.294,0.003-0.599,0.006-0.917,0.009
		c0.424-0.465,0.83-0.913,1.223-1.347c1.379-1.522,2.57-2.837,3.831-4.108c0.709-0.714,1.033-1.422,0.964-2.105
		c-0.068-0.676-0.52-1.296-1.34-1.843c-2.195-1.461-4.405-2.899-6.616-4.336c-1.853-1.205-3.706-2.409-5.549-3.628
		c-8.474-5.604-18.256-9.306-30.786-11.648c-1.878-0.351-2.745-1.118-3.435-3.041c-0.886-2.47-1.873-4.854-2.917-7.379
		c-0.435-1.052-0.875-2.116-1.313-3.2c-0.075-0.186-0.253-0.308-0.453-0.312c-0.211-0.002-0.383,0.112-0.466,0.294l-1.61,3.555
		l-2.616-4.371c-0.099-0.164-0.286-0.263-0.472-0.241c-0.19,0.016-0.355,0.14-0.424,0.318l-1.857,4.824l-3.182-4.326
		c-0.122-0.165-0.331-0.238-0.531-0.187c-0.198,0.053-0.345,0.221-0.369,0.425l-0.649,5.521l-2.361-1.782
		c-0.131-0.1-0.302-0.128-0.458-0.076c-0.156,0.052-0.276,0.177-0.323,0.334l-0.999,3.411l-3.342-2.744
		c-0.206-0.169-0.51-0.147-0.689,0.052c-0.462,0.514-0.463,1.294-0.463,1.982c-0.001,1.2-0.112,1.331-0.548,1.331
		c-0.288,0-0.686-0.092-1.182-0.274c-0.141-0.051-0.299-0.037-0.428,0.041c-0.129,0.077-0.217,0.209-0.239,0.358l-0.29,2.02
		l-2.003-1.377c-0.171-0.117-0.396-0.118-0.566,0c-0.17,0.117-0.251,0.327-0.203,0.528l0.056,0.233
		c-0.458,0.158-0.915,0.319-1.371,0.48c-1.293,0.455-2.631,0.925-3.958,1.331c-0.712,0.217-1.445,0.323-2.242,0.323
		c-1.441,0-2.898-0.357-4.306-0.702c-1.253-0.307-2.549-0.625-3.861-0.703c-0.269-0.016-0.542-0.024-0.82-0.024
		c-2.902,0-5.892,0.839-7.999,2.245C39.813,52.572,36,55.92,32.917,59.499c-1.55,1.799-2.123,4.03-1.612,6.283
		c0.488,2.154,1.934,4.033,3.934,5.16c-0.896,0.516-2.151,0.812-3.517,0.812c-1.399,0-2.764-0.302-3.945-0.872
		c-2.67-1.29-5.354-2.672-7.95-4.009c-2.253-1.161-4.584-2.361-6.9-3.498c-1.284-0.63-2.624-1.115-4.042-1.628
		c-0.663-0.24-1.344-0.486-2.043-0.756c-0.138-0.053-0.291-0.043-0.42,0.028c-0.129,0.07-0.221,0.194-0.25,0.338
		C3.691,73.533,5.617,85.333,7.316,95.743c0.021,0.132,0.095,0.25,0.204,0.327c0.109,0.077,0.245,0.107,0.376,0.085
		c0.399-0.07,0.786-0.114,1.157-0.155c0.804-0.091,1.563-0.177,2.249-0.497c1.127-0.526,2.262-1.04,3.397-1.554
		c3.616-1.638,7.354-3.332,10.801-5.407c2.816-1.696,5.798-2.486,9.384-2.486c2.871,0,5.792,0.516,8.537,1.043
		c0.129,0.025,0.326,0.172,0.625,0.394c0.025,0.019,0.052,0.039,0.079,0.059l-0.486,0.151c-0.873,0.272-1.567,0.489-2.265,0.693
		c-0.282,0.083-0.58,0.139-0.876,0.195c-0.639,0.123-1.299,0.249-1.861,0.608c-3.655,2.338-3.897,3.236-1.995,7.391
		c0.157,0.343,0.299,0.694,0.441,1.044c0.171,0.423,0.343,0.845,0.539,1.256c1.136,2.387,3.201,3.812,5.523,3.812
		c0.815,0,1.644-0.173,2.461-0.514c2.058-0.858,4.079-1.878,6.033-2.865c1.4-0.707,2.849-1.438,4.293-2.101
		c0.505-0.231,1.132-0.273,1.795-0.317c0.174-0.011,0.349-0.023,0.521-0.038l0.084,0.37c0.032,0.14,0.123,0.259,0.249,0.328
		c0.127,0.069,0.276,0.079,0.411,0.03c0.036-0.013,0.077-0.021,0.119-0.031c0.181-0.042,0.456-0.107,0.619-0.354
		c1.355-2.04,2.805-2.99,4.561-2.99c1.247,0,2.695,0.462,4.558,1.453c3.296,1.755,6.992,2.573,11.632,2.573
		c2.854,0,5.768-0.305,8.586-0.601l1.58-0.164c0.322-0.033,0.643-0.082,0.964-0.131c0.172-0.027,0.344-0.054,0.525-0.078
		c-0.091,0.052-0.181,0.104-0.271,0.155c-1.135,0.647-2.208,1.259-3.223,1.919c-2.013,1.31-2.565,3.182-1.598,5.411
		c0.795,1.834,1.558,3.73,2.365,5.738c0.376,0.936,0.768,1.911,1.188,2.941c0.064,0.158,0.205,0.272,0.373,0.303
		c0.03,0.006,0.06,0.008,0.09,0.008c0.138,0,0.271-0.057,0.366-0.16c0.447-0.481,0.885-0.907,1.296-1.309
		c0.868-0.847,1.618-1.579,2.149-2.488c1.181-2.021,2.307-4.116,3.395-6.141c0.975-1.814,1.982-3.689,3.024-5.501
		c0.434-0.755,1.329-1.499,1.806-1.501c13.185-0.068,25.841-3.677,37.619-10.727c1.029-0.616,2.181-1.099,3.295-1.567
		c0.805-0.337,1.637-0.687,2.433-1.088c0.482-0.243,0.818-0.664,1.142-1.07c0.126-0.159,0.253-0.319,0.388-0.462
		c0.106-0.113,0.155-0.269,0.13-0.422S147.984,81.027,147.847,80.953z"/>
</g>
</svg>
