<?xml version="1.0" encoding="iso-8859-1"?>
<!-- Generator: Adobe Illustrator 16.0.4, SVG Export Plug-In . SVG Version: 6.00 Build 0)  -->
<!DOCTYPE svg PUBLIC "-//W3C//DTD SVG 1.1//EN" "http://www.w3.org/Graphics/SVG/1.1/DTD/svg11.dtd">
<svg version="1.1" id="Capa_1" xmlns="http://www.w3.org/2000/svg" xmlns:xlink="http://www.w3.org/1999/xlink" x="0px" y="0px"
	 width="15px" height="15.055px" viewBox="0 0 15 15.055" style="enable-background:new 0 0 15 15.055;" xml:space="preserve">
<path style="fill:#010002;" d="M14.999,8.136c0.011-0.098-0.048-0.198-0.224-0.312c-0.16-0.104-0.326-0.205-0.487-0.308
	c-0.353-0.226-0.724-0.433-1.077-0.677c-1.027-0.713-2.248-0.969-3.467-1.133c-0.5-0.063-1.059-0.037-1.479-0.346
	c-0.325-0.238-0.89-1.062-1.509-1.42c-0.107-0.064-0.61-0.318-0.61-0.318s0.288,0.781,0.354,0.938
	c0.153,0.362-0.084,0.674-0.183,1.021c-0.064,0.229,0.47,0.179,0.498,0.392c0.04,0.315-0.913,0.426-1.45,0.532
	C4.561,6.662,3.624,6.963,2.821,6.699C1.874,6.395,1.199,5.791,0.519,5.108C0.835,6.587,1.715,7.44,1.754,7.62
	C1.795,7.819,1.653,7.86,1.525,7.99C1.241,8.269,0.004,9.691,0,10.142c0.355-0.055,0.783-0.365,1.095-0.547
	c0.348-0.199,1.673-1.182,2.044-1.334C3.224,8.226,4.251,7.924,4.26,8.056c0.015,0.205-0.068,0.25-0.041,0.336
	c0.05,0.164,0.317,0.322,0.445,0.436c0.332,0.285,0.706,0.535,0.94,0.914c0.328,0.529,0.343,1.1,0.436,1.689
	c0.219-0.025,0.442-0.479,0.563-0.658c0.113-0.17,0.525-0.896,0.681-0.941c0.148-0.045,0.606,0.211,0.771,0.26
	c0.629,0.186,1.241,0.297,1.883,0.297c0.771,0.002,2.799,0.057,4.301-1.055c0.166-0.125,0.562-0.6,0.562-0.6
	s-0.083-0.127-0.231-0.174C14.768,8.431,14.98,8.293,14.999,8.136z M13.634,8.205c-0.188,0-0.34-0.15-0.34-0.339
	c0-0.189,0.151-0.341,0.34-0.341c0.189,0,0.341,0.149,0.341,0.341C13.975,8.054,13.822,8.205,13.634,8.205z"/>
</svg>
