<?xml version="1.0" encoding="utf-8"?>
<!-- Generator: Adobe Illustrator 16.0.4, SVG Export Plug-In . SVG Version: 6.00 Build 0)  -->
<!DOCTYPE svg PUBLIC "-//W3C//DTD SVG 1.1//EN" "http://www.w3.org/Graphics/SVG/1.1/DTD/svg11.dtd">
<svg version="1.1" id="Capa_1" xmlns="http://www.w3.org/2000/svg" xmlns:xlink="http://www.w3.org/1999/xlink" x="0px" y="0px"
	 width="64px" height="64px" viewBox="0 0 64 64" enable-background="new 0 0 64 64" xml:space="preserve">
<g>
	<path d="M14.27,19.085c1.959-1.941,4.246-3.556,6.768-4.749c0.999-0.474,1.162-1.371,0.232-1.967
		c-4.68-2.998-10.346-3.157-11.577-2.91c-1.427,0.283-5.056,0.704-2.206,2.414c1.779,1.068,3.555,4.45,4.635,6.837
		C12.577,19.716,13.486,19.862,14.27,19.085z"/>
	<path d="M53.243,9.46c-1.231-0.248-6.903-0.088-11.584,2.914c-0.931,0.597-0.765,1.495,0.233,1.969
		c2.521,1.196,4.809,2.812,6.768,4.758c0.783,0.778,1.691,0.631,2.146-0.375c1.08-2.388,2.859-5.78,4.643-6.852
		C58.3,10.164,54.669,9.743,53.243,9.46z"/>
	<path d="M31.459,14.024c-12.371,0-22.4,10.026-22.4,22.399c0,12.37,10.029,22.397,22.4,22.397c12.37,0,22.398-10.027,22.398-22.397
		C53.857,24.051,43.829,14.024,31.459,14.024z M37.311,26.809c0.91,0,1.653,0.741,1.653,1.652c0,0.912-0.743,1.653-1.653,1.653
		s-1.651-0.741-1.651-1.653C35.658,27.55,36.398,26.809,37.311,26.809z M25.699,26.809c0.911,0,1.654,0.741,1.654,1.652
		c0,0.912-0.743,1.653-1.654,1.653c-0.91,0-1.653-0.741-1.653-1.653C24.046,27.55,24.789,26.809,25.699,26.809z M35.775,49.064
		h-8.85c-4.459,0-8.087-3.291-8.087-7.334c0-4.045,3.628-7.334,8.087-7.334h8.85c4.461,0,8.088,3.289,8.088,7.334
		C43.863,45.773,40.236,49.064,35.775,49.064z"/>
	<path d="M35.775,36.423h-8.85c-3.348,0-6.065,2.376-6.065,5.31c0,2.932,2.717,5.309,6.065,5.309h8.85
		c3.348,0,6.062-2.377,6.062-5.309C41.839,38.799,39.123,36.423,35.775,36.423z M27.918,43.02c-0.569,0.682-2.35,1.094-2.121-0.389
		c0.091-0.586,0.479-1.148,0.916-1.611c0.713-0.756,1.555-0.468,1.541,0.432C28.244,42.082,28.165,42.723,27.918,43.02z
		 M34.998,43.018c-0.247-0.295-0.325-0.937-0.335-1.567c-0.015-0.898,0.829-1.188,1.541-0.431c0.438,0.463,0.825,1.024,0.916,1.61
		C37.348,44.111,35.568,43.7,34.998,43.018z"/>
</g>
</svg>
