<?xml version="1.0" encoding="utf-8"?>
<!-- Generator: Adobe Illustrator 17.0.0, SVG Export Plug-In . SVG Version: 6.00 Build 0)  -->
<!DOCTYPE svg PUBLIC "-//W3C//DTD SVG 1.1//EN" "http://www.w3.org/Graphics/SVG/1.1/DTD/svg11.dtd">
<svg version="1.1" id="Capa_1" xmlns="http://www.w3.org/2000/svg" xmlns:xlink="http://www.w3.org/1999/xlink" x="0px" y="0px"
	 width="64px" height="64px" viewBox="0 0 64 64" enable-background="new 0 0 64 64" xml:space="preserve">
<g>
	<path d="M51.57,33.745c6.598-0.164,9.664-3.135,9.664-6.786c0-3.166-2.308-5.819-7.221-6.578c0.024-1.188,0.025-2.328,0.025-3.381
		H23.5c0,5.133,0.005,12.274,2.837,17.466c5.664,0.276,10.701,1.664,14.491,3.802c1.175,0.663,2.233,1.395,3.149,2.19
		c0.294,0.256,0.57,0.519,0.835,0.787c5.427-0.239,9.227-0.791,9.227-1.433c0-0.518-2.484-0.976-6.292-1.26
		C49.434,37.28,50.667,35.621,51.57,33.745z M57.306,27.03c-0.036,1.97-1.009,3.295-4.601,3.724
		c0.693-2.374,1.027-4.922,1.186-7.384C56.538,23.987,57.337,25.311,57.306,27.03z M27.187,19h4.774
		c-2.141,7,1.47,16.306,1.47,16.306C25.626,29.323,27.187,19,27.187,19z"/>
	<path d="M44.488,7.803c-2.579,0.862-4.713,2.304-5.031,5.179c-0.128,1.159,1.683,1.146,1.809,0
		c0.607-5.501,12.751-2.749,10.22-9.89c-0.387-1.092-2.135-0.622-1.745,0.481C50.852,6.704,46.635,7.085,44.488,7.803z"/>
	<path d="M49.886,9.132c-2.368,0.558-4.532,1.572-5.27,4.062c-0.332,1.121,1.414,1.597,1.745,0.481
		c0.815-2.749,4.426-2.795,6.732-3.465c2.476-0.719,3.893-2.435,3.553-5.068c-0.147-1.14-1.958-1.155-1.809,0
		C55.247,8.326,52.317,8.558,49.886,9.132z"/>
	<path d="M24.25,60.149c11.993,0,21.75-5.324,21.75-11.868c0-2.59-1.532-4.987-4.122-6.94c-0.146-0.11-0.295-0.218-0.447-0.325
		c-1.528-1.074-3.385-2-5.489-2.735c-2.447-0.855-5.225-1.451-8.206-1.714c-1.135-0.1-2.299-0.154-3.485-0.154
		c-11.993,0-21.75,5.324-21.75,11.869C2.5,54.825,12.257,60.149,24.25,60.149z M15.264,43.265c0.828,0,1.5,0.672,1.5,1.5
		c0,0.489,0.275,0.994,0.759,1.466c0.712-1.486,3.412-2.593,6.644-2.593c3.313,0,6.074,1.163,6.699,2.705
		c0.559-0.503,0.87-1.05,0.87-1.578c0-0.828,0.672-1.5,1.5-1.5s1.5,0.672,1.5,1.5c0,3.691-4.606,6.583-10.486,6.583
		s-10.486-2.892-10.486-6.583C13.764,43.937,14.436,43.265,15.264,43.265z"/>
</g>
</svg>
