<svg xmlns="http://www.w3.org/2000/svg" xmlns:xlink="http://www.w3.org/1999/xlink" version="1.1" id="Layer_1" x="0px" y="0px" width="100px" height="100px" viewBox="0 0 100 100" enable-background="new 0 0 100 100" xml:space="preserve">
<path d="M15.771,75.105c0,0.011,0.001,0.021,0.001,0.029c0.097-0.011,0.191-0.029,0.291-0.029H15.771z"/>
<path fill="#000000" d="M86.254,26.563l-5.588-5.588c-0.563-0.563-1.326-0.879-2.121-0.879h-8.383h-0.76l-19.062-7.66V9.125  c0-1.381-1.119-2.5-2.5-2.5s-2.5,1.119-2.5,2.5v3.426l-15.734,7.544h-9.738c-1.266,0-2.396,0.794-2.823,1.985  s-0.063,2.522,0.913,3.328l8.528,7.039l5.065,18.71c0.354,1.309,1.541,2.217,2.896,2.217h0.677v4h-0.058  c-1.266,0-2.396,0.794-2.823,1.985l-9.884,27.5c-0.4,1.114-0.107,2.361,0.747,3.181l2.608,2.5c0.559,0.535,1.303,0.834,2.076,0.834  h39.776c0.795,0,1.559-0.316,2.121-0.879l2.5-2.5c0.824-0.824,1.096-2.051,0.697-3.146l-10-27.5  c-0.424-1.167-1.523-1.946-2.762-1.97v-4.005h0.844c1.287,0,2.432-0.822,2.842-2.041l8.508-25.238h4.984l3.311,3.311L70.172,55.511  c-0.615,1.538,0.133,3.284,1.67,3.899c0.365,0.146,0.742,0.216,1.113,0.216c1.191,0,2.318-0.714,2.787-1.887l11.176-27.941  C87.363,28.684,87.102,27.412,86.254,26.563z M45.646,47.375l-2.798-21.279h9.892l-2.996,21.279H45.646z M47.929,16.855l8.063,3.24  H41.171L47.929,16.855z M32.028,29.959c-0.162-0.6-0.507-1.134-0.985-1.53l-2.827-2.333h8.58l2.799,21.279h-2.852L32.028,29.959z   M49.142,63.375l2.016,24h-7.635l2.47-24H49.142z M28.665,87.057l8.511-23.682h2.786l-2.47,24h-8.496L28.665,87.057z M66.594,87.104  l-0.27,0.271H57.18l-2.016-24h2.801L66.594,87.104z M58.813,47.375h-3.008l2.994-21.279h7.188L58.813,47.375z"/>
</svg>