<?xml version="1.0" encoding="utf-8"?>
<!-- Generator: Adobe Illustrator 18.0.0, SVG Export Plug-In . SVG Version: 6.00 Build 0)  -->
<!DOCTYPE svg PUBLIC "-//W3C//DTD SVG 1.1//EN" "http://www.w3.org/Graphics/SVG/1.1/DTD/svg11.dtd">
<svg version="1.1" id="Capa_1" xmlns="http://www.w3.org/2000/svg" xmlns:xlink="http://www.w3.org/1999/xlink" x="0px" y="0px"
	 viewBox="0 0 612 792" enable-background="new 0 0 612 792" xml:space="preserve">
<path d="M502.5,331.7c-88.1-94.9-265.6-172-396.6-144.4c-8.6,1.8-12.2,8.6-11,15.3c-81.4,44.7,8.6,199.5,42.8,244.8
	c67.3,90,187.9,190.9,309.1,163.4c55.7-12.9,96.7-65.5,112-118.1C576.5,432.7,541.6,374,502.5,331.7z M105.3,228.9
	c1.2-3.1,2.4-6.1,3.7-9.8c78.9,142,236.8,252.1,388.6,301.1c1.8,0.6,3.1,0.6,4.3,0.6c0,1.2,0,2.4,0,3.7
	C333.5,505.5,183.6,374,105.3,228.9z"/>
</svg>
