<?xml version="1.0" encoding="utf-8"?>
<!-- Generator: Adobe Illustrator 16.0.0, SVG Export Plug-In . SVG Version: 6.00 Build 0)  -->
<!DOCTYPE svg PUBLIC "-//W3C//DTD SVG 1.1//EN" "http://www.w3.org/Graphics/SVG/1.1/DTD/svg11.dtd">
<svg version="1.1" id="Layer_1" xmlns="http://www.w3.org/2000/svg" xmlns:xlink="http://www.w3.org/1999/xlink" x="0px" y="0px"
	 width="50px" height="50px" viewBox="0 0 50 50" enable-background="new 0 0 50 50" xml:space="preserve">
<g>
	<path d="M23.218,37.06c-0.587,0.037-1.196,0.058-1.823,0.058c-2.414,0-4.582-0.292-6.122-0.756
		c-0.124-6.133-0.9-10.15-1.593-13.724c-0.55-2.838-1.071-5.54-1.182-8.917c1.7,1.028,5.394,1.51,8.896,1.51s7.196-0.481,8.896-1.51
		c-0.11,3.378-0.632,6.079-1.182,8.917c-0.365,1.882-0.75,3.897-1.054,6.27l0.878,0.508c0.309-2.523,0.716-4.63,1.098-6.599
		c0.628-3.24,1.223-6.302,1.223-10.402c0-1.937-5.111-2.817-9.859-2.817s-9.859,0.881-9.859,2.817c0,4.101,0.594,7.162,1.223,10.402
		c0.747,3.853,1.595,8.218,1.595,15.239c0,1.613,3.65,2.348,7.042,2.348c1.54,0,3.131-0.153,4.411-0.47
		C24.729,39.142,23.861,38.157,23.218,37.06z M21.395,10.536c5.771,0,8.92,1.24,8.92,1.878c0,0.637-3.148,1.878-8.92,1.878
		s-8.92-1.241-8.92-1.878C12.475,11.776,15.623,10.536,21.395,10.536z"/>
	<path d="M33.158,39.444l-1.741-6.508l-3.367,5.832C29.676,39.628,31.483,39.825,33.158,39.444z"/>
	<path d="M27.56,38.486l3.366-5.831l-6.506,1.742C24.928,36.041,26.001,37.507,27.56,38.486z"/>
	<path d="M24.271,33.851l6.507-1.743l-5.831-3.369C24.089,30.366,23.892,32.175,24.271,33.851z"/>
	<path d="M37.796,36.159l-5.833-3.367l1.745,6.505C35.351,38.788,36.815,37.716,37.796,36.159z"/>
	<path d="M38.135,36.353c-2.222,3.546-6.88,4.734-10.533,2.626c-3.653-2.111-4.953-6.739-2.991-10.435l-0.331-0.19
		c-2.064,3.88-0.702,8.74,3.133,10.955c3.833,2.212,8.727,0.963,11.053-2.766L38.135,36.353z"/>
	<path d="M29.376,19.926c0-0.638-2.817-1.878-7.981-1.878s-7.981,1.24-7.981,1.878c0,0.637,2.817,1.878,7.981,1.878
		S29.376,20.562,29.376,19.926z M21.395,20.887c-3.903,0-6.033-0.854-6.033-1.292s2.13-1.291,6.033-1.291s6.032,0.853,6.032,1.291
		S25.298,20.887,21.395,20.887z"/>
</g>
</svg>
