<?xml version="1.0" encoding="utf-8"?>
<!-- Generator: Adobe Illustrator 17.0.2, SVG Export Plug-In . SVG Version: 6.00 Build 0)  -->
<!DOCTYPE svg PUBLIC "-//W3C//DTD SVG 1.0//EN" "http://www.w3.org/TR/2001/REC-SVG-20010904/DTD/svg10.dtd">
<svg version="1.0" id="Layer_1" xmlns="http://www.w3.org/2000/svg" xmlns:xlink="http://www.w3.org/1999/xlink" x="0px" y="0px"
	 width="24.775px" height="38.909px" viewBox="0 0 24.775 38.909" enable-background="new 0 0 24.775 38.909" xml:space="preserve">
<g>
	<g>
		<path d="M13.332,25.178c-3.626,0-6.467-1.851-6.467-4.214s2.841-4.214,6.467-4.214c0.547,0,1.088,0.043,1.61,0.127
			c2.906,0.469,4.858,2.112,4.858,4.087C19.8,23.327,16.959,25.178,13.332,25.178z M13.332,18.658c-2.686,0-4.559,1.215-4.559,2.306
			s1.872,2.306,4.559,2.306c2.687,0,4.559-1.215,4.559-2.306c0-0.956-1.399-1.903-3.255-2.203
			C14.216,18.693,13.777,18.658,13.332,18.658z"/>
	</g>
	<path d="M24.349,10.058l-1.909-3.593H9.895L7.462,0H0v3.181h5.261l1.235,3.284H3.998L2.09,10.058L1.664,10.86l0.209,1.106
		l5.089,26.942h12.516l5.089-26.942l0.209-1.106L24.349,10.058z M6.142,1.908H1.272V1.272h5.309L8.53,6.449L8.487,6.465H7.855
		L6.142,1.908z M5.145,8.374h16.149l0.895,1.684H4.25L5.145,8.374z M17.896,37H8.543L3.814,11.967h18.81L17.896,37z"/>
</g>
</svg>
