<?xml version="1.0" encoding="iso-8859-1"?>
<!-- Generator: Adobe Illustrator 16.0.0, SVG Export Plug-In . SVG Version: 6.00 Build 0)  -->
<!DOCTYPE svg PUBLIC "-//W3C//DTD SVG 1.1//EN" "http://www.w3.org/Graphics/SVG/1.1/DTD/svg11.dtd">
<svg version="1.1" id="Layer_2" xmlns="http://www.w3.org/2000/svg" xmlns:xlink="http://www.w3.org/1999/xlink" x="0px" y="0px"
	 width="512px" height="512px" viewBox="0 0 512 512" style="enable-background:new 0 0 512 512;" xml:space="preserve">
<g>
	<polygon points="152.424,192.959 159.194,224.334 181.187,208.057 170.599,198.523 	"/>
	<path d="M487.795,246.264c-2.286-8.346-17.073-16.156-42.492-22.516l-9.012-38.119l-58.427-83.057L255.228,51.719l-61.235,34.553
		l-30.771,39.605l-62.557,10.814l-46.644,89.855c-18.332,5.646-27.768,12.783-29.665,19.717c0,0-0.327,1.299-0.253,2.646
		c0.801,74.246,35.159,140.254,88.343,183.057h-8.601v28.314h304.459v-28.314h-8.599c53.185-42.803,87.401-108.814,88.202-183.059
		C487.921,248.729,487.795,246.264,487.795,246.264z M404.371,262.686c-41.113,6.375-93.779,9.885-148.296,9.885
		s-107.183-3.51-148.298-9.885c-32.281-5.006-49.565-10.469-58.537-14.314c7.554-3.242,21.005-7.625,44.337-11.92l-10.857-8.662
		l34.732-68.357l47.002-8.125l48.099,26.174l1.914,1.041l1.04-0.037l62.008-2.092l-59.122-9.406l-33.175-27.373l25.74-33.9
		l45.965-25.938l104.491,43.328l51.454,73.148l5.385,22.146l-12.116,15.934c31.142,4.93,47.968,10.26,56.773,14.039
		C453.939,252.217,436.652,257.68,404.371,262.686z"/>
	<polygon points="323.457,179.072 312.736,194.771 344.706,197.641 335.708,171.801 	"/>
	<polygon points="270.623,232.455 284.022,247.496 297.711,232.455 284.168,226.834 	"/>
	<polygon points="249.399,127.668 264.057,127.305 274.151,116.668 255.797,108.363 	"/>
</g>
</svg>
