<?xml version="1.0" encoding="utf-8"?>
<!-- Generator: Adobe Illustrator 17.1.0, SVG Export Plug-In . SVG Version: 6.00 Build 0)  -->
<!DOCTYPE svg PUBLIC "-//W3C//DTD SVG 1.1//EN" "http://www.w3.org/Graphics/SVG/1.1/DTD/svg11.dtd">
<svg version="1.1" id="Capa_1" xmlns="http://www.w3.org/2000/svg" xmlns:xlink="http://www.w3.org/1999/xlink" x="0px" y="0px"
	 width="1000px" height="1000px" viewBox="0 0 1000 1000" enable-background="new 0 0 1000 1000" xml:space="preserve">
<path d="M370.633,685.727c38.85-0.433,77.05-6.291,113.612-17.46c37.916-11.583,73.077-28.56,104.505-50.458
	c47.864-33.353,86.619-75.843,115.196-126.297c1.828-3.592,3.669-7.338,5.702-11.484c9.755-19.901,18.709-41.32,25.893-61.944
	c1.757-5.042,3.309-11.025,4.954-17.37c4.722-18.211,10.945-42.208,28.167-62.844l-7.679-73.069
	c-1.505-14.311,0.323-29.569,5.146-42.964c6.907-19.185,19.873-33.996,36.507-41.703c5.273-2.443,11.011-3.706,16.815-3.706
	c0.292,0,0.583,0.003,0.875,0.01c1.308,0.029,8.818,0.237,19.523,1.385c4.198-25.405,8.824-53.402,9.28-56.169
	c-9.786-33.355-75.825-54.011-78.968-54.974c-11.82,2.044-25.621,15.453-29.216,37.217l-15.214,92.059l-0.266,0.104
	c-0.12,0.047-0.239,0.093-0.361,0.136l-0.152,0.058c-1.732,0.696-3.793,1.555-5.864,2.615c-18.922,9.68-29.031,27.248-38.809,44.237
	c-3.529,6.133-7.177,12.471-11.147,18.228c-13.306,19.295-28.66,38.9-44.403,56.696c-3.396,3.841-6.46,7.294-9.551,10.672
	c-45.396,45.723-99.354,79.85-160.39,101.447c-88.524,31.319-188.679,31.197-282.014-0.344c-5.914-1.999-11.866-4.149-17.691-6.391
	c-6.391-2.46-14.345-5.521-22.827-8.389c-14.666-4.957-33.424-10.295-51.523-10.295c-11.206,0-22.159,2.046-31.737,7.493
	c-8.25,4.692-14.983,11.662-20.011,20.716c-19.779,35.605-4.496,64.597,14.967,90.62c17.692,23.657,37.951,44.464,60.216,61.843
	c42.604,33.285,90.118,58.919,141.223,76.19C286.388,675.448,328.514,683.478,370.633,685.727z"/>
<path d="M921.189,347.979c0,0-10.042-95.532-10.425-99.157c-13.487-21.987-54.225-29.088-76.451-31.354
	c-0.166-0.017-0.335-0.035-0.499-0.051c-0.169-0.017-0.332-0.032-0.499-0.048c-8.36-0.819-13.864-0.941-13.864-0.941
	c-15.293,7.085-20.312,28.741-18.688,44.19l9.722,92.512c-0.099,0.074-0.197,0.147-0.299,0.217l-0.141,0.103
	c-1.499,1.141-3.266,2.521-5.003,4.112c-15.784,14.453-20.891,34.146-25.829,53.191c-1.773,6.837-3.606,13.906-5.901,20.492
	c-7.703,22.113-17.298,45.07-27.749,66.389c-2.249,4.588-4.281,8.722-6.375,12.815c-12.387,21.974-26.523,42.576-42.322,61.741
	c-0.657,0.797-1.311,1.596-1.973,2.388c-0.699,0.835-1.406,1.662-2.111,2.491c-23.562,27.714-50.688,52.32-81.165,73.558
	C541.489,699.491,455.122,725.769,366,725.769c-8.673,0-17.355-0.249-26.068-0.749c-6.221-0.357-12.523-0.851-18.732-1.467
	c-6.825-0.677-15.319-1.52-24.255-2.034c-4.928-0.283-10.27-0.494-15.822-0.494c-22.75,0-49.091,3.528-65.581,20.025
	c-6.775,6.779-11.463,15.364-13.932,25.517c-9.691,39.854,12.849,63.885,38.65,83.917c23.369,18.143,48.462,32.853,74.579,43.72
	c49.959,20.812,102.626,32.936,156.538,36.035c9.13,0.525,18.253,0.786,27.333,0.786c105.794,0,207.427-35.39,288.769-101.053
	c129.25-104.323,192.664-270.74,165.497-434.305C949.739,376.17,938.196,358.893,921.189,347.979z"/>
</svg>
