<?xml version="1.0" encoding="utf-8"?>
<!-- Generator: Adobe Illustrator 17.1.0, SVG Export Plug-In . SVG Version: 6.00 Build 0)  -->
<!DOCTYPE svg PUBLIC "-//W3C//DTD SVG 1.1//EN" "http://www.w3.org/Graphics/SVG/1.1/DTD/svg11.dtd">
<svg version="1.1" id="Capa_1" xmlns="http://www.w3.org/2000/svg" xmlns:xlink="http://www.w3.org/1999/xlink" x="0px" y="0px"
	 width="1000px" height="1000px" viewBox="0 0 1000 1000" enable-background="new 0 0 1000 1000" xml:space="preserve">
<path d="M597.943,367.939c1.301-3.698,2.682-7.37,4.135-11.014c11.853-26.637,27.168-51.625,44.664-74.927
	c18.57-23.412,39.394-45.146,62.706-63.87c5.184-3.853,10.479-7.549,15.922-11.035c19.281-12.349,27.05-37.185,15.099-57.585
	c-11.234-19.178-38.246-27.484-57.585-15.099c-46.264,29.629-84.581,70.394-116.111,115.059c-0.718,1.018-1.43,2.042-2.141,3.066
	c-10.153-44.645-32.042-106.492-78.997-153.507c-57.378-57.296-136.794-77.29-180.159-84.167
	c-17.218-2.73-30.556,10.618-27.816,27.834c6.899,43.353,26.917,122.732,84.129,180.025c53.738,53.708,127.01,74.663,171.716,82.741
	c-1.8,3.761-3.535,7.552-5.183,11.383c-5.029,11.691-9.948,23.422-13.866,35.523c-4.792-0.243-9.614-0.381-14.475-0.381
	c-173.998,0-314.95,140.97-314.95,314.934c0,173.947,140.953,315.018,314.984,315.001c173.879,0,314.95-141.038,314.95-315.001
	C814.967,527.252,723.835,409.129,597.943,367.939z M534.113,902.054c-11.622,0-21.321-9.698-21.321-21.32s9.699-21.32,21.321-21.32
	s21.32,9.698,21.32,21.32S545.735,902.054,534.113,902.054z M561.829,823.168c-11.622,0-21.32-9.698-21.32-21.32
	s9.698-21.32,21.32-21.32s21.32,9.698,21.32,21.32S573.451,823.168,561.829,823.168z M634.318,867.941
	c-11.622,0-21.32-9.698-21.32-21.32s9.698-21.32,21.32-21.32s21.32,9.698,21.32,21.32S645.94,867.941,634.318,867.941z"/>
</svg>
