<?xml version="1.0" encoding="utf-8"?>
<!-- Generator: Adobe Illustrator 17.0.0, SVG Export Plug-In . SVG Version: 6.00 Build 0)  -->
<!DOCTYPE svg PUBLIC "-//W3C//DTD SVG 1.1//EN" "http://www.w3.org/Graphics/SVG/1.1/DTD/svg11.dtd">
<svg version="1.1" id="Capa_1" xmlns="http://www.w3.org/2000/svg" xmlns:xlink="http://www.w3.org/1999/xlink" x="0px" y="0px"
	 width="64px" height="64px" viewBox="0 0 64 64" enable-background="new 0 0 64 64" xml:space="preserve">
<g>
	<path d="M13.432,30.575c-0.466-1.156-0.286-2.088-0.057-2.638c0.225-0.542,0.735-1.316,1.844-1.806
		c0.145-0.064,0.305-0.12,0.471-0.173c0.152-0.048,0.319-0.086,0.489-0.124c0.449-0.099,0.948-0.167,1.543-0.167h5.758H38.52h5.758
		c0.595,0,1.093,0.069,1.543,0.167c0.17,0.037,0.338,0.076,0.489,0.124c0.166,0.053,0.326,0.109,0.471,0.173
		c1.109,0.49,1.62,1.264,1.844,1.806c0.228,0.551,0.408,1.482-0.057,2.638c3.11-1.067,5.349-4.01,5.349-7.483
		c0-3.695-2.534-6.789-5.957-7.662c-0.181-0.046-0.362-0.088-0.547-0.122c-0.177-0.032-0.354-0.062-0.535-0.082
		C45.173,8.029,38.72,2.667,31,2.667S16.827,8.029,15.122,15.227c-0.181,0.02-0.358,0.05-0.535,0.082
		c-0.185,0.033-0.367,0.076-0.547,0.122c-3.422,0.873-5.957,3.968-5.957,7.662C8.083,26.565,10.322,29.508,13.432,30.575z"/>
	<polygon points="40.211,45.123 31,40.058 21.789,45.123 22.596,47.154 31,51.776 39.404,47.154 	"/>
	<path d="M31,60.873c1.28,0,2.559-0.488,3.536-1.464l1.111-2.795L31,54.058l-4.646,2.555l1.111,2.795
		C28.441,60.385,29.72,60.873,31,60.873z"/>
	<polygon points="38.244,50.074 33.075,52.917 36.39,54.74 	"/>
	<polygon points="28.925,52.917 23.756,50.074 25.61,54.74 	"/>
	<polygon points="28.925,38.917 16.639,32.16 21.045,43.25 	"/>
	<polygon points="45.361,32.16 33.075,38.917 40.955,43.25 	"/>
	<path d="M45.841,27.908c-0.15-0.057-0.317-0.104-0.499-0.141c-0.165-0.034-0.339-0.061-0.53-0.077
		c-0.169-0.014-0.346-0.023-0.535-0.023h-4.732H22.454h-4.732c-0.189,0-0.366,0.009-0.535,0.023
		c-0.191,0.016-0.365,0.044-0.53,0.077c-0.182,0.037-0.349,0.084-0.499,0.141c-0.626,0.237-0.971,0.637-1.014,1.148l3.001,1.651
		l0.216,0.119l1.673,0.92l6.135,3.374l1.653,0.909L31,37.776l3.177-1.747l1.653-0.909l6.135-3.374l1.673-0.92l0.216-0.119
		l3.002-1.651C46.812,28.545,46.468,28.145,45.841,27.908z"/>
</g>
</svg>
