<?xml version="1.0" encoding="utf-8"?>
<!-- Generator: Adobe Illustrator 17.1.0, SVG Export Plug-In . SVG Version: 6.00 Build 0)  -->
<!DOCTYPE svg PUBLIC "-//W3C//DTD SVG 1.1//EN" "http://www.w3.org/Graphics/SVG/1.1/DTD/svg11.dtd">
<svg version="1.1" id="Capa_1" xmlns="http://www.w3.org/2000/svg" xmlns:xlink="http://www.w3.org/1999/xlink" x="0px" y="0px"
	 width="500px" height="500px" viewBox="0 0 500 500" enable-background="new 0 0 500 500" xml:space="preserve">
<path d="M98.2,120.2c-32.9,35.1-53.1,82.3-53.1,134.3C45.1,363,133,487,241.5,487s196.4-124,196.4-232.5
	c0-51.9-20.2-99.2-53.1-134.3c-7.7-8.2-23.6-14.6-44.3-19.3c-2.4,4.5-4.9,9-7.3,13.5c-0.1,0.2-0.2,0.4-0.3,0.6
	c-0.1,0.2-0.2,0.4-0.3,0.5c24.2,5.7,32.9,11.6,32.9,15c0,10.5-74.6,10.5-124,10.5s-124,0-124-10.5c0-3.5,9.4-9.8,36-15.7
	c25.4-5.7,56.7-8.8,88-8.8c15.2,0,30.4,0.7,44.9,2.1c0.1-0.2,0.2-0.4,0.3-0.5c0.1-0.2,0.2-0.4,0.3-0.5c2.4-4.4,4.8-8.8,7.1-13.2
	C218.2,86.9,121.2,95.7,98.2,120.2z"/>
<path d="M312.6,128c2.7-5,5.4-10,8.1-15c0.1-0.2,0.2-0.4,0.3-0.5c0.1-0.2,0.2-0.4,0.3-0.6c2.4-4.5,4.9-9,7.3-13.4
	c14.6-27,28.3-52.2,38.5-70.6h71.7c13.5,0,13.5-20.9,0-20.9h-77.4c-3.9,0-6.6,1.7-8.3,4.2c-0.8,0.7-1.6,1.7-2.2,2.8
	c-11.3,20.1-27.4,49.8-44.3,81.2c-2.4,4.4-4.8,8.8-7.2,13.3c-0.1,0.2-0.2,0.4-0.3,0.5c-0.1,0.2-0.2,0.4-0.3,0.5
	c-3.4,6.3-6.8,12.7-10.2,19c2.1,0.1,4.2,0.1,6.3,0.1C300.8,128.6,306.7,128.4,312.6,128z"/>
</svg>
