<?xml version="1.0" encoding="iso-8859-1"?>
<!-- Generator: Adobe Illustrator 16.0.4, SVG Export Plug-In . SVG Version: 6.00 Build 0)  -->
<!DOCTYPE svg PUBLIC "-//W3C//DTD SVG 1.1//EN" "http://www.w3.org/Graphics/SVG/1.1/DTD/svg11.dtd">
<svg version="1.1" id="Capa_1" xmlns="http://www.w3.org/2000/svg" xmlns:xlink="http://www.w3.org/1999/xlink" x="0px" y="0px"
	 width="30.158px" height="43.458px" viewBox="0 0 30.158 43.458" style="enable-background:new 0 0 30.158 43.458;"
	 xml:space="preserve">
<path d="M27.148,18.667c-0.25-0.042,0.167-0.875,0.875-2.917c0.708-2.041,1.958-5.416,2.125-5.958
	c0.167-0.542-1.75-0.667-1.958-0.667s-0.042-0.416,0.042-1.5c0.083-1.083,0.167-3.25,0.375-4.25c0.208-1-0.083-1.25-0.708-1.375
	s-2.917-0.208-3.333-0.166c-0.417,0.041-0.75,2.375-1.125,4.083s-0.458,2.792-0.583,2.75s0-1.458,0.042-3.083
	c0.042-1.625,0.542-3.459,0.708-4.292c0.167-0.833-0.333-0.917-1.667-1.083C20.606,0.042,19.773,0,19.314,0s-0.5,1.5-0.833,3.375
	c-0.333,1.875-0.75,5.25-0.75,5.25s-0.458-1.458-0.625-1.708c-0.167-0.25-0.25-0.5-0.25-1.167c0-0.666-0.208-3.541-0.042-4.666
	s-0.875-1-1.333-0.792c-0.458,0.208-0.958,0.042-2.25,0.167c-1.292,0.125-1.417,0.708-1.458,1.208
	c-0.042,0.5,0.042,3.708,0.042,3.708s-0.458,0.042-0.583,0c-0.125-0.041-0.083-1.791-0.083-2.791s-1-0.709-2.083-0.667
	s-2.125-0.042-2.667,0c-0.542,0.042-0.25,4.625-0.25,4.625S5.939,6.084,5.689,5.417S4.648,1.792,4.606,1.625
	C4.564,1.459,3.356,1.792,2.856,2c-0.5,0.209-1.375,0.334-2.292,0.625c-0.917,0.292-0.5,0.792-0.25,1.584
	C0.564,5,1.898,8.25,1.898,8.25S1.356,8.459,0.606,8.834s0.292,2.458,1.125,4.958c0.833,2.5,1.583,4.792,1.583,4.792
	s-1.542,0.541-2.708,0.875c-1.167,0.333-0.245,1.624-0.083,2.291c0.333,1.375,1.042,6.375,2.375,11.792
	c1.333,5.417,2.208,9.5,2.75,9.875c0.542,0.375,4.958-1.958,8.458-1.875S21.856,43,22.439,43s0.833-0.375,2.042-4.791
	c1.208-4.417,3.667-16.792,4.042-18.209C28.898,18.584,27.398,18.709,27.148,18.667z M24.189,6.959c0.708-2.75,0.5-3.625,1.75-3.584
	c1.25,0.042,1.792-0.083,1.667,0.792s-0.625,2.708-0.667,3.417c-0.042,0.708-0.208,1.333-0.5,2.125
	c-0.292,0.791-2.25,5.416-2.75,6.5c-0.5,1.083-0.958,2.208-1.333,2.083c-0.201-0.067-0.083-1.333,0-2.333
	C22.439,14.959,23.481,9.709,24.189,6.959z M22.606,10.459c-0.167,0.791-1.042,4.291-1.25,5.75c-0.208,1.458-0.208,1.916-0.5,1.916
	c-0.292,0-1.333-0.25-1.333-0.25l-0.167-2.708c0,0,1.375-4.958,1.75-5.083S22.773,9.667,22.606,10.459z M18.606,8.5
	c0.208-1.625,0.833-5.458,1.042-6.291c0.208-0.834,0.417-0.75,1.083-0.75c0.667,0,1.792,0.166,1.625,0.916
	c-0.167,0.75-0.333,3.084-0.458,3.792s0,2.417-0.375,2.5s-1.042-0.458-1.292,0.167s-1.542,5.375-1.542,5.375l-1.167-4.125
	C17.523,10.084,18.398,10.125,18.606,8.5z M16.356,8.375c0.083,0.709,0.583,4.125,1.083,5.5s0.917,2.959,1,3.334
	s0.417,0.916-0.125,0.916s-2.125,0.334-2.375-0.791s-1.125-6.5-1.125-6.5c-0.208-0.542-0.542-2.125-0.375-2.292
	S16.273,7.667,16.356,8.375z M12.939,1.834c0.292-0.042,0.917,0,1.5-0.25s1.208-0.667,1.25,0.166
	c0.042,0.834,0.083,2.875,0.083,3.292S16.148,6.959,15.648,7c-0.5,0.042-0.875,0.167-1.042,0.209
	c-0.167,0.041-0.583,0.166-0.542-0.459s0-1.5-0.417-1.458c-0.417,0.042-0.833,0-0.833,0S12.648,1.875,12.939,1.834z M10.648,6.709
	c0.458-0.042,1.542,0,2,0c0.458,0,0.5,0,0.5,0.875s0.167,5.375,0.167,6s-0.042,1.5,0.042,1.75c0.083,0.25,0.042,2.833-0.083,2.833
	s-2.875,0.125-2.875,0.125s0.625-2.458,0.458-3.708c-0.167-1.25-0.75-1.959-0.708-2.667c0.042-0.708,0.25-4.167,0.25-4.167
	S10.189,6.75,10.648,6.709z M7.689,3.542c0.458-0.167,1.208-0.125,1.75-0.167c0.542-0.041,0.792,0.25,0.792,0.792s0,1.042,0,1.042
	s-0.542,0.041-0.75,1c-0.208,0.958-0.25,3.75-0.25,5s0.208,1.458,0.333,2.25c0.125,0.791,0.167,1.833-0.083,2.75
	c-0.25,0.916-0.292,1.708-0.292,1.958s-0.125,0.542-0.417,0.542c-0.292,0-1,0.125-1.042-0.5c-0.042-0.625-0.25-12.417-0.25-12.417
	C7.523,4.667,7.231,3.709,7.689,3.542z M1.606,4.875c0,0-0.583-0.708,0.333-1.125c0.917-0.416,1.625-0.916,1.875-0.5
	c0.25,0.417,2.292,5.917,2.417,6.334C6.356,10,6.606,10.5,6.648,10.792c0.042,0.292,0.083,4.833,0.083,4.833
	s-1.917-5.333-2.333-6.791c-0.417-1.459-0.875-1.25-1.417-1.042L1.606,4.875z M1.773,10.5c-0.417-0.958,0.583-1,1.125-1.083
	c0.542-0.083,0.333-0.042,0.667,1.25s1.792,4.875,2.208,6.25c0.417,1.375,0.333,1.625,0.125,1.625h-1
	c-0.542,0-0.583-0.875-0.583-0.875S2.189,11.459,1.773,10.5z M26.398,21.959c-0.042,0.916-2.292,10.5-3.25,14.083
	c-0.958,3.583-1.167,4.708-1.583,4.583s-4.625-1-7.583-0.833c-2.958,0.167-4.75,0.542-5.833,0.833
	c-1.083,0.292-1.458,0.792-1.542,0.125c-0.083-0.666-4.292-17.583-4.292-17.583c-0.25-1.167-0.875-2.042,0-2.375
	s7.375-1.292,12.083-1.417c4.708-0.125,10.667,0.834,11.417,1.125C26.564,20.792,26.439,21.042,26.398,21.959z M25.648,18.834
	c-0.417-0.084-1.5-0.5-1.5-0.5c-0.125,0,0.167-0.792,0.667-2.167s1.792-4.542,2.125-5.25s0.208-0.75,0.75-0.75
	s1.417-0.292,0.958,0.875c-0.458,1.167-1.125,2.625-1.667,4.5C26.439,17.417,26.064,18.917,25.648,18.834z"/>
<g>
</g>
<g>
</g>
<g>
</g>
<g>
</g>
<g>
</g>
<g>
</g>
<g>
</g>
<g>
</g>
<g>
</g>
<g>
</g>
<g>
</g>
<g>
</g>
<g>
</g>
<g>
</g>
<g>
</g>
</svg>
