<?xml version="1.0" encoding="iso-8859-1"?>
<!-- Generator: Adobe Illustrator 16.0.0, SVG Export Plug-In . SVG Version: 6.00 Build 0)  -->
<!DOCTYPE svg PUBLIC "-//W3C//DTD SVG 1.1//EN" "http://www.w3.org/Graphics/SVG/1.1/DTD/svg11.dtd">
<svg version="1.1" id="Capa_1" xmlns="http://www.w3.org/2000/svg" xmlns:xlink="http://www.w3.org/1999/xlink" x="0px" y="0px"
	 width="93.752px" height="93.752px" viewBox="0 0 93.752 93.752" style="enable-background:new 0 0 93.752 93.752;"
	 xml:space="preserve">
<g>
	<path d="M32.366,26.046V41.35h30.725V24.11c2.908-2.626,4.566-6.339,4.566-10.271C67.657,6.208,61.447,0,53.816,0
		c-5.399,0-10.332,3.197-12.572,8.053c-0.637-0.12-1.285-0.182-1.936-0.182c-5.742,0-10.414,4.673-10.414,10.416
		C28.896,21.272,30.152,24.068,32.366,26.046z M39.31,10.154c0.775,0,1.547,0.111,2.293,0.33l1.018,0.299l0.373-0.994
		c1.68-4.489,6.031-7.506,10.824-7.506c6.373,0,11.557,5.184,11.557,11.556c0,3.435-1.516,6.669-4.156,8.875l-0.409,0.342v16.01
		h-26.16V24.971l-0.428-0.343c-1.934-1.554-3.043-3.865-3.043-6.341C31.179,13.803,34.825,10.154,39.31,10.154z M52.433,56.909
		H51.05c6.492-1.486,11.34-7.285,11.34-14.228H33.172c0,6.942,4.848,12.741,11.338,14.228h-3.193c-2.416,0-4.76,0.475-6.969,1.411
		c-6.65,2.818-10.947,9.297-10.947,16.507v13.599l0.16,1.092l1.613,0.504c7.924,2.476,15.713,3.73,23.148,3.73
		c12.402,0,19.646-3.467,20.437-3.863l0.631-0.32h0.961v-14.74C70.351,64.947,62.313,56.909,52.433,56.909z M44.609,91.35
		c-6.074-0.344-12.363-1.512-18.756-3.508l-0.17-0.054V74.827c0-6.291,3.75-11.945,9.555-14.405
		c1.926-0.814,3.971-1.229,6.078-1.229h3.293V91.35z M68.066,87.678l-0.34,0.174c-0.293,0.147-7.326,3.617-19.404,3.617
		c-0.479,0-0.965-0.02-1.447-0.029V59.191h5.557c8.621,0,15.635,7.015,15.635,15.636L68.066,87.678L68.066,87.678z M51.079,64.352
		c0,0.787-0.642,1.426-1.429,1.426s-1.426-0.639-1.426-1.426c0-0.789,0.639-1.428,1.426-1.428S51.079,63.562,51.079,64.352z
		 M51.079,71.807c0,0.788-0.642,1.428-1.429,1.428s-1.426-0.64-1.426-1.428c0-0.787,0.639-1.427,1.426-1.427
		S51.079,71.02,51.079,71.807z M51.079,79.096c0,0.788-0.642,1.428-1.429,1.428s-1.426-0.64-1.426-1.428
		c0-0.787,0.639-1.427,1.426-1.427S51.079,78.309,51.079,79.096z"/>
</g>
<g>
</g>
<g>
</g>
<g>
</g>
<g>
</g>
<g>
</g>
<g>
</g>
<g>
</g>
<g>
</g>
<g>
</g>
<g>
</g>
<g>
</g>
<g>
</g>
<g>
</g>
<g>
</g>
<g>
</g>
</svg>
