<?xml version="1.0" encoding="iso-8859-1"?>
<!-- Generator: Adobe Illustrator 18.1.1, SVG Export Plug-In . SVG Version: 6.00 Build 0)  -->
<svg version="1.1" id="Capa_1" xmlns="http://www.w3.org/2000/svg" xmlns:xlink="http://www.w3.org/1999/xlink" x="0px" y="0px"
	 viewBox="0 0 14.399 14.399" style="enable-background:new 0 0 14.399 14.399;" xml:space="preserve">
<g>
	<g>
		<path style="fill:#030104;" d="M13.081,6.562l-0.964-3.98c-0.044-0.179-0.204-0.306-0.39-0.306L2.495,2.265l0,0
			c-0.187,0-0.348,0.128-0.39,0.309L1.254,6.202C1.223,6.333,1.26,6.47,1.351,6.567C1.442,6.665,1.575,6.71,1.709,6.689
			c0.002,0,0.13-0.021,0.327-0.042v5.749c0,1.105,0.898,2.003,2.003,2.003h5.853c1.104,0,2.003-0.897,2.003-2.003V6.284
			c0.236,0.133,0.355,0.334,0.417,0.503l0.053,0.223c0.05,0.204,0.248,0.336,0.458,0.3c0.207-0.035,0.352-0.225,0.331-0.435
			C13.152,6.851,13.136,6.729,13.081,6.562z M4.755,12.539l-0.979-0.868l0.261-1.282l1.241-0.414l0.979,0.867l-0.262,1.281
			L4.755,12.539z M5.331,9.432l0.282-1.381l1.338-0.447l1.055,0.934L7.724,9.921l-1.337,0.447L5.331,9.432z M8.732,12.402
			l-1.24,0.416l-0.979-0.867l0.262-1.282l1.24-0.415l0.979,0.868L8.732,12.402z M10.5,10.358l-1.239,0.415l-0.98-0.868l0.262-1.28
			l1.24-0.416l0.98,0.867L10.5,10.358z M11.828,5.403c-0.124-0.031-0.258-0.047-0.394-0.047c-0.641,0-1.273,0.339-1.885,0.667
			c-0.335,0.179-0.651,0.348-0.92,0.432c-0.127,0.04-0.273,0.059-0.435,0.059c-0.642,0-1.296-0.311-1.302-0.314
			C6.837,6.174,6.777,6.16,6.717,6.16c-0.061,0-0.121,0.014-0.177,0.04C6.536,6.203,6.049,6.436,5.536,6.436
			c-0.271,0-0.495-0.065-0.667-0.196C4.473,5.943,3.83,5.791,2.955,5.791c-0.291,0-0.565,0.018-0.792,0.037L2.81,3.067l8.601,0.009
			l0.574,2.375C11.937,5.432,11.883,5.417,11.828,5.403z"/>
		<path style="fill:#030104;" d="M3.059,2.069h7.812c0.571,0,1.035-0.463,1.035-1.035S11.442,0,10.871,0H3.059
			C2.488,0,2.024,0.462,2.024,1.034S2.488,2.069,3.059,2.069z"/>
	</g>
</g>
<g>
</g>
<g>
</g>
<g>
</g>
<g>
</g>
<g>
</g>
<g>
</g>
<g>
</g>
<g>
</g>
<g>
</g>
<g>
</g>
<g>
</g>
<g>
</g>
<g>
</g>
<g>
</g>
<g>
</g>
</svg>
